<svg width="553" height="643" viewBox="0 0 553 643" fill="none" xmlns="http://www.w3.org/2000/svg">
<path d="M0 276.5C0 123.793 123.793 0 276.5 0C429.207 0 553 123.793 553 276.5V643H0V276.5Z" fill="white"/>
<path d="M0 276.5C0 123.793 123.793 0 276.5 0C429.207 0 553 123.793 553 276.5V643H0V276.5Z" stroke="black"/>
<rect x="227" y="354" width="100" height="289" fill="black"/>
<path d="M70.5 323.5L134 404H227.5H326H435.5L474 323.5" stroke="black" stroke-width="4"/>
<path d="M325.181 289.9C318.439 316.678 291.266 332.922 264.487 326.181C237.708 319.439 221.465 292.266 228.206 265.487C234.948 238.708 262.121 222.465 288.9 229.206C315.679 235.948 331.922 263.121 325.181 289.9ZM260.664 273.658C258.436 282.511 263.805 291.494 272.658 293.723C281.511 295.951 290.494 290.581 292.723 281.729C294.951 272.876 289.582 263.893 280.729 261.664C271.876 259.436 262.893 264.805 260.664 273.658Z" fill="black"/>
</svg>
